<svg viewBox="166.25 130.78 494.47 500" xmlns:xlink="http://www.w3.org/1999/xlink" xmlns="http://www.w3.org/2000/svg" data-name="Layer 1" id="Logo_Icon">
  <defs>
    <style>
      .cls-1 {
        fill: none;
      }

      .cls-1, .cls-2, .cls-3, .cls-4, .cls-5, .cls-7 {
        stroke-width: 0px;
      }

      .cls-2 {
        fill: #c54617;
      }

      .cls-8 {
        clip-path: url(#clippath);
      }

      .cls-3 {
        fill: #8d8d21;
      }

      .cls-4 {
        fill: #bb5831;
      }

      .cls-5 {
        fill: #dc6a33;
      }

      .cls-7 {
        fill: #b3ac37;
      }
    </style>
    <clipPath id="clippath">
      <path d="m412.58,137.69l-10.65,58.66-146.75,59.54-40.93,82.64,11.49,115.93,58.16,88.08s100.05,19.39,106.39,19.39,100.27-11.49,106.08-14.36c5.81-2.87,51.05-49.55,52.49-55.29,1.44-5.74,27.29-94.78,27.29-99.09v-76.19l-9.56-45.05-27.26-45.16,13.98-76.88s105.41,79.07,106.13,83.27c.72,4.2,31.59,134.25,31.59,144.98s2.87,111.97-7.9,132.08c-10.77,20.11-239.73,213.26-265.99,208.23-26.26-5.03-181.35-29.44-197.87-54.57-16.52-25.13-73.96-76.11-73.96-100.53s-16.52-287.94-10.05-300.14c6.46-12.21,113.45-128.74,127.81-132.23,14.36-3.48,149.5,6.71,149.5,6.71Z" class="cls-1"></path>
    </clipPath>
  </defs>
  <g>
    <path d="m398.71,314.75c-4.92,1.7-8.89,3.93-12.63,6.28-10.39,6.57-18.99,15.68-25.38,25.68-3.84,5.81-6.71,12.06-8.31,18.68,3.57,9.05,8.94,18.02,15.56,26.89.65-.33,1.3-.66,1.94-1,24.44-12.73,35.98-49.87,30.06-75.85l-1.25-.68Z" class="cls-7"></path>
    <path d="m354.32,395.95l1.25.68c2.89-.58,5.42-1.36,7.72-2.26-4.79-6.51-8.95-13.08-12.25-19.72-.11,2.09-.1,4.21.05,6.36.38,4.6,1.05,9.36,3.23,14.95Z" class="cls-7"></path>
  </g>
  <path d="m398.28,429.42c-4.87-4.7-9.59-9.41-14.07-14.14-10.28,5.5-20.08,11.72-29.04,18.9,5.24,7.02,10.75,13.84,16.4,20.55,2.48-3.14,5.13-6.13,7.89-8.94,5.84-5.96,12.16-11.38,18.82-16.37Z" class="cls-7"></path>
  <path d="m425.52,602.34c-9.4,7.66-18.57,13.31-21.58,16.07l35.23-4.22c-.1-.1-.2-.21-.31-.3-4.22-3.45-8.71-7.34-13.34-11.55Z" class="cls-7"></path>
  <path d="m401.93,432.92c-7.05,5.23-13.31,10.65-18.92,16.38-2.94,2.98-5.66,6.11-8.14,9.32,21.15,24.73,43.95,48.14,62.05,74.5,7.28,11.44,14.2,21.42,13.3,33.12-.96,12.48-10.55,23.8-20.84,32.83,4.38,3.98,8.63,7.66,12.65,10.94,1.2.98,2.12,2.18,2.74,3.5l56.65-6.78c6.63-.79,11.76-6.24,12.1-12.91.9-17.91-3.12-36.57-13.42-56.67-18.39-35.88-61.89-69.8-98.16-104.24Z" class="cls-7"></path>
  <path d="m592.08,316.85c-5.34,19.59-26.84,35.3-47.36,33.86-7.32-.63-14.83-3.57-19.34-9.61l.41-1.2c6.37-1.96,11.43-3.62,17.07-5.9,9.22-3.68,20.71-8.56,30.09-12.22,5.56-2.07,11.29-4.23,18.22-5.81l.92.88h0Z" class="cls-4"></path>
  <path d="m532.28,330.13c.78,1.48,1.56,2.89,2.35,4.28,2.42-.84,4.8-1.72,7.29-2.73,3.92-1.57,8.16-3.31,12.64-5.16,5.93-2.44,12.06-4.96,17.48-7.07l.39-.15c.78-.29,1.57-.59,2.37-.88,9.77-28.07-9.1-75.3-9.1-75.3l-1.22-.36c-3.84,1.26-6.99,2.71-9.98,4.22-7.63,3.82-15.47,9.51-21.02,15.28-10.53,11.01-16.71,23.13-18.32,35.64,3.61,6.2,6.84,12.49,10,18.66,2.29,4.47,4.65,9.09,7.11,13.57Z" class="cls-2"></path>
  <path d="m468.74,217.74c9.28-2.72,17.65-6.28,26.52-10.06,8.1-3.45,16.48-7.02,25.55-9.85.39-.12.77-.24,1.15-.36,8.22-13.22,12.15-29.43,11.28-45.89-.07-2.02-.33-4.17-.38-6.2,0,0-.76-1.17-.76-1.17-1.96-.82-4.19-1.14-6.26-1.55-20.29-3.3-38.66.62-52.98,9.75-1.23,3.46-2.49,6.7-3.64,9.59-2.13,5.32-4.29,10.17-6.39,14.87-3.61,8.07-7.01,15.69-9.74,24.64-2.14,6.59-3.17,12.94-4.29,20.17,7.15-.99,13.45-1.93,19.95-3.93Z" class="cls-2"></path>
  <path d="m461.05,423.82c-6.54-5.4-14.42-9.96-22.74-12.78-9.79,4.91-18.55,9.87-26.42,14.99,5.72,4.38,12.58,7.14,19.87,8.48,11.76,2.3,24.28,2.33,35.8-2.19l.37-1.37c-2.17-2.85-4.49-5.09-6.88-7.13Z" class="cls-7"></path>
  <path d="m439.76,386.95c1.8-3.84,3.08-7.97,3.87-12.25,2.3-11.76,2.33-24.28-2.19-35.8l-1.37-.37c-2.85,2.17-5.09,4.49-7.13,6.88-9.02,10.92-15.73,25.55-15.8,39.74.1,3.23.47,6.32,1.24,9.36,7.14-2.71,14.29-5.2,21.38-7.56Z" class="cls-7"></path>
  <path d="m315.8,347.78c-.02-12.17.61-22.46,1.95-31.47-1.95-3.06-4.2-5.95-6.71-8.68-11.12-12.37-25.61-22.21-42.58-25.56l-1.12.87c-.41,5.19.04,9.72.7,14.09,1.86,12.15,6.76,23.68,13.37,33.53,6.66,10.27,15.74,18.34,27.58,22.54,2.25.77,4.56,1.48,7.09,2.02-.18-2.36-.28-4.8-.29-7.34Z" class="cls-7"></path>
  <path d="m523.85,348.96c-8.93,8.88-19.67,16.48-31.84,22.3-11.59,5.87-23.71,9.48-36.54,13.3l-3.46,1.03c-49.7,15.84-104.96,36.83-131.85,85.66-13.39,25.1-16.89,54.07-10.7,88.59,5.64,30.17,13.08,35.36,35.16,50.8,2.08,1.45,4.29,3,6.65,4.67l.52.37,83.06,9.45c.31.03.61.05.9.05,3.16,0,5.9-1.95,6.98-4.97,1.07-2.99.17-6.23-2.3-8.25-20.75-16.99-42.17-39.15-57.31-59.27-19.57-26.02-28.4-47.93-25.51-63.36l.02-.1c.35-2.41,1.14-5.06,1.91-7.62.19-.62.37-1.24.55-1.84.36-.84.7-1.69,1.04-2.54.59-1.47,1.14-2.85,1.79-4.2,4.27-8.83,10.6-17.64,18.31-25.48,15.27-15.6,35.27-28.99,62.94-42.15,6.55-3.17,13.48-6,20.18-8.74,11.09-4.53,22.57-9.22,32.95-15.63,14.22-8.24,26.32-18.45,35.94-30.01-3.1-.12-6.27-.81-9.4-2.05Z" class="cls-7"></path>
  <path d="m523.37,342.6l-.79-1.06,1.26-3.66,1.22-.37c2.56-.79,4.9-1.53,7.17-2.28-.72-1.27-1.42-2.55-2.13-3.9-8.25-15.03-14.9-30.6-25.31-44.92l-1.27.08c-1.69,3.29-2.53,6.63-3.12,9.99-2.62,16.99,3.2,35.82,17.5,46.42,3.34,2.36,7.2,4.21,11.22,5.09-2.25-1.52-4.19-3.33-5.74-5.4Z" class="cls-5"></path>
  <path d="m450.78,131.84c-10.36,21.71-24.7,42.57-21.05,67.24,1.03,7.38,4.24,14.92,8.04,23.69l-.95,1.03c-9.28-3.4-17.27-10.83-21.47-19.84-9.41-18.7-1.52-42.25,11.68-56.6,6.44-7.05,13.87-13.04,22.84-16.57,0,0,.92,1.06.92,1.06h0Z" class="cls-4"></path>
  <path d="m387.03,244.41c13.02-9.44,27.77-16.27,43.27-20.9-2.83-1.6-5.49-3.55-7.89-5.78-26.71,5.78-52.17,17.98-70.72,38.64-22.57,24.64-33.48,42.67-33.39,91.41.04,20.39,6.23,34.78,13.66,49.63,5.87,11.54,12.75,22.37,20.25,32.74,7.28-5.81,15.37-11.25,24.34-16.36,1.37-.78,2.75-1.54,4.14-2.29-19.67-21.44-34.04-43.29-35.53-66.12-2.69-38.95,9.08-77.43,41.87-100.97Z" class="cls-7"></path>
  <path d="m474.63,133.58c-9.84.14-19.06,4.17-26.86,9.86-.22.43-.45.87-.67,1.3-9.14,17.78-17.78,34.57-14.9,53.97,1.02,7.27,10.24,23.85,10.24,23.85l1.25-.18c.85-.12,1.68-.24,2.51-.35,1.17-7.6,2.22-14.3,4.48-21.26,4.39-14.37,10.46-25.32,16.2-39.71,3.32-8.31,6.61-17.32,8.59-26.38,0,0-.84-1.11-.84-1.11Z" class="cls-5"></path>
  <path d="m519.87,245.42c-18.44,15.27-47.8,20.05-69.14,7.33-13.22-7.79-21.38-23.62-19.33-38.86,0,0,1.35-.37,1.35-.37,6.01,7.42,11.21,13.76,17.27,18.1,12.29,9.28,27.84,11.4,42.98,12.02,8.35.4,17.02.24,26.36.48l.51,1.3h0Z" class="cls-4"></path>
  <path d="m451.47,229.6c12.18,9.19,27.87,10.99,41.63,11.55,3.82.18,7.69.25,11.7.29,17.55-8.22,31.16-24.61,32.23-44.22l-1.1-.86c-5.12,1.01-9.58,2.37-14.38,3.87-18.54,5.8-33.93,14.6-52.07,19.91-7.73,2.38-15.13,3.29-23.77,4.5,1.87,1.85,3.78,3.54,5.77,4.96Z" class="cls-5"></path>
  <g class="cls-8">
    <path d="m432.4,153.09c61.67,4.68,122.76,30.72,166.27,75.45,69.45,69.53,81.34,182.66,31.77,266.73-57.63,102.31-184.62,157.02-297.53,121.05-154.88-49.33-218.21-241.18-118.92-371.25,50.45-66.01,136.86-98.56,218.41-91.97h0Zm-.22,2.98c-60.22-4.75-120.41,19.42-162.65,61.88-84.69,83.07-96.72,219.36-20.11,311.69,45.57,55.24,120.33,88.61,193.36,82,184.17-18.22,246.29-232.09,141.47-370.67-35.71-48.11-91.71-81.05-152.07-84.9h0Z" class="cls-3"></path>
  </g>
</svg>
